<mxfile>
    <diagram id="_aAut9FGOpw1Qjv1Djvd" name="Page-1">
        <mxGraphModel dx="2392" dy="1880" grid="1" gridSize="10" guides="1" tooltips="1" connect="1" arrows="1" fold="1" page="1" pageScale="1" pageWidth="850" pageHeight="1100" math="0" shadow="0">
            <root>
                <mxCell id="0"/>
                <mxCell id="1" parent="0"/>
                <mxCell id="285" value="" style="rounded=1;whiteSpace=wrap;html=1;dashed=1;" parent="1" vertex="1">
                    <mxGeometry x="67.19" y="471" width="1089.37" height="300" as="geometry"/>
                </mxCell>
                <mxCell id="286" value="" style="rounded=1;whiteSpace=wrap;html=1;" parent="1" vertex="1">
                    <mxGeometry x="77.19" y="501" width="925.62" height="250" as="geometry"/>
                </mxCell>
                <mxCell id="287" value="" style="rounded=1;whiteSpace=wrap;html=1;" parent="1" vertex="1">
                    <mxGeometry x="469.44000000000005" y="654" width="400" height="80" as="geometry"/>
                </mxCell>
                <mxCell id="288" value="&lt;span style=&quot;color: rgb(240 , 240 , 240) ; font-family: &amp;#34;helvetica&amp;#34; ; font-style: normal ; font-weight: 400 ; letter-spacing: normal ; text-align: center ; text-indent: 0px ; text-transform: none ; word-spacing: 0px ; background-color: rgb(42 , 42 , 42) ; display: inline ; float: none&quot;&gt;&lt;font style=&quot;font-size: 14px&quot;&gt;Stream-based classifier builder&lt;/font&gt;&lt;/span&gt;" style="text;html=1;strokeColor=none;fillColor=none;align=center;verticalAlign=middle;whiteSpace=wrap;rounded=0;" parent="1" vertex="1">
                    <mxGeometry x="116.56" y="470" width="200.63" height="30" as="geometry"/>
                </mxCell>
                <mxCell id="289" value="Feature engineering&lt;br&gt;[feature selection, dimensionality reduction]" style="rounded=1;whiteSpace=wrap;html=1;" parent="1" vertex="1">
                    <mxGeometry x="346.80999999999995" y="561" width="120" height="60" as="geometry"/>
                </mxCell>
                <mxCell id="290" value="Data imputation&lt;br&gt;(Imputer)" style="rounded=1;whiteSpace=wrap;html=1;" parent="1" vertex="1">
                    <mxGeometry x="216.81" y="561" width="120" height="60" as="geometry"/>
                </mxCell>
                <mxCell id="291" value="Outlier detection" style="rounded=1;whiteSpace=wrap;html=1;" parent="1" vertex="1">
                    <mxGeometry x="477.44000000000005" y="561" width="120" height="60" as="geometry"/>
                </mxCell>
                <mxCell id="292" value="Dataset Balancing" style="rounded=1;whiteSpace=wrap;html=1;" parent="1" vertex="1">
                    <mxGeometry x="608.81" y="561" width="120" height="60" as="geometry"/>
                </mxCell>
                <mxCell id="293" value="Data generation&lt;br&gt;(Generator)" style="rounded=1;whiteSpace=wrap;html=1;" parent="1" vertex="1">
                    <mxGeometry x="479.44000000000005" y="664" width="120" height="60" as="geometry"/>
                </mxCell>
                <mxCell id="294" value="Oversampling/&lt;br&gt;Undesampling" style="rounded=1;whiteSpace=wrap;html=1;" parent="1" vertex="1">
                    <mxGeometry x="609.44" y="664" width="120" height="60" as="geometry"/>
                </mxCell>
                <mxCell id="295" value="Merge with previous outliers" style="rounded=1;whiteSpace=wrap;html=1;" parent="1" vertex="1">
                    <mxGeometry x="739.44" y="664" width="120" height="60" as="geometry"/>
                </mxCell>
                <mxCell id="296" value="" style="endArrow=classic;startArrow=classic;html=1;exitX=0.5;exitY=0;exitDx=0;exitDy=0;entryX=0.5;entryY=1;entryDx=0;entryDy=0;" parent="1" source="287" target="292" edge="1">
                    <mxGeometry width="50" height="50" relative="1" as="geometry">
                        <mxPoint x="642.81" y="581" as="sourcePoint"/>
                        <mxPoint x="692.81" y="531" as="targetPoint"/>
                    </mxGeometry>
                </mxCell>
                <mxCell id="297" value="Classification" style="rounded=1;whiteSpace=wrap;html=1;" parent="1" vertex="1">
                    <mxGeometry x="739.44" y="561" width="120" height="60" as="geometry"/>
                </mxCell>
                <mxCell id="298" value="" style="endArrow=classic;html=1;entryX=0.5;entryY=0;entryDx=0;entryDy=0;exitX=0.5;exitY=0;exitDx=0;exitDy=0;" parent="1" source="302" target="289" edge="1">
                    <mxGeometry width="50" height="50" relative="1" as="geometry">
                        <mxPoint x="492.80999999999995" y="541" as="sourcePoint"/>
                        <mxPoint x="542.81" y="491" as="targetPoint"/>
                        <Array as="points">
                            <mxPoint x="929.19" y="531"/>
                            <mxPoint x="407.19000000000005" y="531"/>
                        </Array>
                    </mxGeometry>
                </mxCell>
                <mxCell id="299" value="" style="endArrow=classic;html=1;entryX=0;entryY=0.5;entryDx=0;entryDy=0;exitX=1;exitY=0.5;exitDx=0;exitDy=0;" parent="1" source="291" target="292" edge="1">
                    <mxGeometry width="50" height="50" relative="1" as="geometry">
                        <mxPoint x="482.80999999999995" y="571" as="sourcePoint"/>
                        <mxPoint x="482.80999999999995" y="591" as="targetPoint"/>
                    </mxGeometry>
                </mxCell>
                <mxCell id="300" value="" style="endArrow=classic;html=1;entryX=0;entryY=0.5;entryDx=0;entryDy=0;exitX=1;exitY=0.5;exitDx=0;exitDy=0;" parent="1" source="289" target="291" edge="1">
                    <mxGeometry width="50" height="50" relative="1" as="geometry">
                        <mxPoint x="607.44" y="601" as="sourcePoint"/>
                        <mxPoint x="616.81" y="601" as="targetPoint"/>
                    </mxGeometry>
                </mxCell>
                <mxCell id="301" value="" style="endArrow=classic;html=1;entryX=0;entryY=0.5;entryDx=0;entryDy=0;exitX=1;exitY=0.5;exitDx=0;exitDy=0;" parent="1" source="292" target="297" edge="1">
                    <mxGeometry width="50" height="50" relative="1" as="geometry">
                        <mxPoint x="499.44000000000005" y="621" as="sourcePoint"/>
                        <mxPoint x="508.80999999999995" y="621" as="targetPoint"/>
                    </mxGeometry>
                </mxCell>
                <mxCell id="302" value="Evaluation" style="rounded=1;whiteSpace=wrap;html=1;" parent="1" vertex="1">
                    <mxGeometry x="869.44" y="561" width="120" height="60" as="geometry"/>
                </mxCell>
                <mxCell id="303" value="" style="endArrow=classic;html=1;entryX=0;entryY=0.5;entryDx=0;entryDy=0;exitX=1;exitY=0.5;exitDx=0;exitDy=0;" parent="1" source="297" target="302" edge="1">
                    <mxGeometry width="50" height="50" relative="1" as="geometry">
                        <mxPoint x="738.81" y="601" as="sourcePoint"/>
                        <mxPoint x="749.44" y="601" as="targetPoint"/>
                    </mxGeometry>
                </mxCell>
                <mxCell id="304" value="" style="endArrow=classic;html=1;entryX=0;entryY=0.5;entryDx=0;entryDy=0;exitX=1;exitY=0.5;exitDx=0;exitDy=0;" parent="1" source="290" target="289" edge="1">
                    <mxGeometry width="50" height="50" relative="1" as="geometry">
                        <mxPoint x="476.80999999999995" y="601" as="sourcePoint"/>
                        <mxPoint x="487.44000000000005" y="601" as="targetPoint"/>
                    </mxGeometry>
                </mxCell>
                <mxCell id="305" value="" style="rounded=1;whiteSpace=wrap;html=1;" parent="1" vertex="1">
                    <mxGeometry x="1006.56" y="501" width="140" height="250" as="geometry"/>
                </mxCell>
                <mxCell id="306" value="HyperParameter tuning" style="rounded=1;whiteSpace=wrap;html=1;" parent="1" vertex="1">
                    <mxGeometry x="1016.56" y="561" width="120" height="60" as="geometry"/>
                </mxCell>
                <mxCell id="307" value="" style="endArrow=classic;html=1;entryX=0;entryY=0.5;entryDx=0;entryDy=0;exitX=1;exitY=0.5;exitDx=0;exitDy=0;" parent="1" source="302" target="306" edge="1">
                    <mxGeometry width="50" height="50" relative="1" as="geometry">
                        <mxPoint x="996.56" y="591" as="sourcePoint"/>
                        <mxPoint x="883.44" y="601" as="targetPoint"/>
                    </mxGeometry>
                </mxCell>
                <mxCell id="308" value="&lt;font face=&quot;helvetica&quot;&gt;&lt;span style=&quot;font-size: 14px&quot;&gt;MLflow&lt;/span&gt;&lt;/font&gt;" style="text;html=1;strokeColor=none;fillColor=none;align=center;verticalAlign=middle;whiteSpace=wrap;rounded=0;" parent="1" vertex="1">
                    <mxGeometry x="114.81" y="499" width="54.38" height="30" as="geometry"/>
                </mxCell>
                <mxCell id="309" value="&lt;font face=&quot;helvetica&quot;&gt;&lt;span style=&quot;font-size: 14px&quot;&gt;RayTune&lt;/span&gt;&lt;/font&gt;" style="text;html=1;strokeColor=none;fillColor=none;align=center;verticalAlign=middle;whiteSpace=wrap;rounded=0;" parent="1" vertex="1">
                    <mxGeometry x="1006.56" y="500" width="100" height="30" as="geometry"/>
                </mxCell>
                <mxCell id="310" value="Normalization/&lt;br&gt;Standardization" style="rounded=1;whiteSpace=wrap;html=1;" parent="1" vertex="1">
                    <mxGeometry x="86.19" y="561" width="120" height="60" as="geometry"/>
                </mxCell>
                <mxCell id="311" value="" style="endArrow=classic;html=1;entryX=0;entryY=0.5;entryDx=0;entryDy=0;exitX=1;exitY=0.5;exitDx=0;exitDy=0;" parent="1" source="310" target="290" edge="1">
                    <mxGeometry width="50" height="50" relative="1" as="geometry">
                        <mxPoint x="356.80999999999995" y="611" as="sourcePoint"/>
                        <mxPoint x="366.80999999999995" y="611" as="targetPoint"/>
                    </mxGeometry>
                </mxCell>
                <mxCell id="312" value="" style="endArrow=classic;html=1;exitX=0.5;exitY=1;exitDx=0;exitDy=0;entryX=0.17;entryY=-0.001;entryDx=0;entryDy=0;entryPerimeter=0;" parent="1" source="291" target="287" edge="1">
                    <mxGeometry width="50" height="50" relative="1" as="geometry">
                        <mxPoint x="607.44" y="601" as="sourcePoint"/>
                        <mxPoint x="536.19" y="653" as="targetPoint"/>
                    </mxGeometry>
                </mxCell>
            </root>
        </mxGraphModel>
    </diagram>
</mxfile>